<svg width="222.000000" height="31.000000" viewBox="0 0 222 31" fill="none" xmlns="http://www.w3.org/2000/svg" xmlns:xlink="http://www.w3.org/1999/xlink">
	<desc>
			Created with Pixso.
	</desc>
	<defs/>
	<path id="Vector 1" d="M19.47 4.41L4 4.41C2.84 4.41 1.88 5.29 1.79 6.42L0.46 23.48C0.31 25.52 2.83 26.63 4.27 25.16L21.06 8.1C22.42 6.72 21.42 4.41 19.47 4.41Z" fill="#FF8A00" fill-opacity="1.000000" fill-rule="nonzero"/>
	<path id="Vector" d="M212.46 5.45L221.39 5.45L221.39 25.08L212.46 25.08L212.46 24.19C212.46 24.05 212.32 24.05 212.29 24.05C212.25 24.05 212.22 24.05 212.18 24.09C211.1 25.18 209.88 25.72 208.49 25.72C204.48 25.72 201.55 21.29 201.55 15.44C201.55 9.77 204.86 5.17 208.94 5.17L208.98 5.17C210.2 5.17 211.28 5.59 212.18 6.44C212.22 6.48 212.25 6.48 212.29 6.48C212.32 6.48 212.46 6.44 212.46 6.3L212.46 5.45ZM212.46 18.95L212.46 11.9C212.46 11.51 212.15 11.23 211.76 11.23C211.38 11.23 211.1 11.51 211.1 11.9L211.1 18.95C211.1 19.34 211.38 19.62 211.76 19.62C212.15 19.62 212.46 19.34 212.46 18.95Z" fill="#FF8A00" fill-opacity="1.000000" fill-rule="nonzero"/>
	<path id="Vector" d="M195.36 17.25L190.51 17.92C190.09 17.96 189.95 18.35 189.95 18.6C189.95 18.67 189.99 19.27 190.58 19.27C190.62 19.27 190.65 19.27 190.69 19.27L200.38 17.89L200.38 25.08L186.99 25.08C183.78 25.08 181.2 22.46 181.2 19.2C181.2 16.26 183.36 13.67 186.22 13.28L191.17 12.57C191.63 12.54 191.73 12.18 191.73 11.93C191.73 11.86 191.66 11.23 191.17 11.23C191.1 11.23 191.07 11.26 191 11.26L181.2 12.64L181.2 5.45L194.59 5.45C197.8 5.45 200.38 8.11 200.38 11.37C200.38 14.31 198.22 16.79 195.36 17.25Z" fill="#FF8A00" fill-opacity="1.000000" fill-rule="nonzero"/>
	<path id="Vector" d="M174.42 17.25L169.57 17.92C169.15 17.96 169.02 18.35 169.02 18.6C169.02 18.67 169.05 19.27 169.64 19.27C169.68 19.27 169.71 19.27 169.75 19.27L179.44 17.89L179.44 25.08L166.05 25.08C162.84 25.08 160.26 22.46 160.26 19.2C160.26 16.26 162.42 13.67 165.28 13.28L170.24 12.57C170.69 12.54 170.79 12.18 170.79 11.93C170.79 11.86 170.72 11.23 170.24 11.23C170.17 11.23 170.13 11.26 170.06 11.26L160.26 12.64L160.26 5.45L173.65 5.45C176.86 5.45 179.44 8.11 179.44 11.37C179.44 14.31 177.28 16.79 174.42 17.25Z" fill="#FF8A00" fill-opacity="1.000000" fill-rule="nonzero"/>
	<path id="Vector" d="M158.43 5.27C158.25 6.51 157.59 7.54 156.65 8.21C155.71 8.89 154.77 9.1 154.03 9.1C153.79 9.1 153.58 9.06 153.34 9.03C152.12 8.78 151.11 8.14 150.44 7.19C149.75 6.23 149.57 5.27 149.57 4.57C149.57 4.32 149.61 4.07 149.64 3.82C149.82 2.58 150.48 1.55 151.42 0.85C152.36 0.17 153.3 0 154 0C154.25 0 154.49 0.03 154.77 0.07C155.99 0.24 157 0.92 157.66 1.87C158.32 2.83 158.5 3.79 158.5 4.49C158.5 4.74 158.46 4.99 158.43 5.27ZM158.5 25.08L149.57 25.08L149.57 10.45L158.5 10.45L158.5 25.08Z" fill="#FF8A00" fill-opacity="1.000000" fill-rule="nonzero"/>
	<path id="Vector" d="M141.6 5.17C145.61 5.17 148.54 9.6 148.54 15.44C148.54 21.08 145.23 25.72 141.11 25.72C139.89 25.72 138.85 25.29 137.91 24.41C137.87 24.37 137.84 24.37 137.8 24.37C137.77 24.37 137.63 24.41 137.63 24.55L137.63 30.96L128.7 30.96L128.7 5.45L137.63 5.45L137.63 6.66C137.63 6.8 137.77 6.8 137.8 6.8C137.84 6.8 137.87 6.8 137.91 6.76C138.95 5.7 140.17 5.17 141.6 5.17ZM138.99 18.95L138.99 11.9C138.99 11.51 138.67 11.23 138.29 11.23C137.91 11.23 137.63 11.51 137.63 11.9L137.63 18.95C137.63 19.34 137.91 19.62 138.29 19.62C138.67 19.62 138.99 19.34 138.99 18.95Z" fill="#FF8A00" fill-opacity="1.000000" fill-rule="nonzero"/>
	<path id="Vector" d="M108.97 5.17L109.01 5.17C114.58 5.17 119.12 9.77 119.12 15.44C119.12 21.08 114.51 25.72 108.97 25.72C103.39 25.72 98.86 21.08 98.86 15.44C98.86 9.77 103.39 5.17 108.97 5.17ZM109.67 18.95L109.67 11.9C109.67 11.51 109.39 11.23 109.01 11.23C108.62 11.23 108.34 11.51 108.34 11.9L108.34 18.95C108.34 19.34 108.62 19.62 109.01 19.62C109.39 19.62 109.67 19.34 109.67 18.95Z" fill="#FF8A00" fill-opacity="1.000000" fill-rule="nonzero"/>
	<path id="Vector" d="M88.9 5.45L97.83 5.45L97.83 21.75C97.83 28.62 94.34 30.96 88.73 30.96L86.5 30.96L86.5 26.35L88.73 26.35C88.83 26.35 88.9 26.32 88.9 26.21L88.9 24.19C88.9 24.05 88.77 24.05 88.73 24.05C88.7 24.05 88.66 24.05 88.63 24.09C87.54 25.18 86.32 25.72 84.93 25.72C80.92 25.72 77.99 21.29 77.99 15.44C77.99 9.77 81.3 5.17 85.38 5.17L85.42 5.17C86.64 5.17 87.72 5.59 88.63 6.44C88.66 6.48 88.7 6.48 88.73 6.48C88.77 6.48 88.9 6.44 88.9 6.3L88.9 5.45ZM88.9 18.95L88.9 11.9C88.9 11.51 88.59 11.23 88.21 11.23C87.82 11.23 87.54 11.51 87.54 11.9L87.54 18.95C87.54 19.34 87.82 19.62 88.21 19.62C88.59 19.62 88.9 19.34 88.9 18.95Z" fill="#FF8A00" fill-opacity="1.000000" fill-rule="nonzero"/>
	<path id="Vector" d="M58.85 5.17L58.89 5.17C64.47 5.17 69 9.77 69 15.44C69 21.08 64.4 25.72 58.85 25.72C53.28 25.72 48.74 21.08 48.74 15.44C48.74 9.77 53.28 5.17 58.85 5.17ZM59.55 18.95L59.55 11.9C59.55 11.51 59.27 11.23 58.89 11.23C58.51 11.23 58.23 11.51 58.23 11.9L58.23 18.95C58.23 19.34 58.51 19.62 58.89 19.62C59.27 19.62 59.55 19.34 59.55 18.95Z" fill="#FF8A00" fill-opacity="1.000000" fill-rule="nonzero"/>
	<path id="Vector" d="M38.79 5.45L47.71 5.45L47.71 21.75C47.71 28.62 44.23 30.96 38.61 30.96L36.38 30.96L36.38 26.35L38.61 26.35C38.72 26.35 38.79 26.32 38.79 26.21L38.79 24.19C38.79 24.05 38.65 24.05 38.61 24.05C38.58 24.05 38.54 24.05 38.51 24.09C37.43 25.18 36.21 25.72 34.81 25.72C30.8 25.72 27.87 21.29 27.87 15.44C27.87 9.77 31.19 5.17 35.27 5.17L35.3 5.17C36.52 5.17 37.6 5.59 38.51 6.44C38.54 6.48 38.58 6.48 38.61 6.48C38.65 6.48 38.79 6.44 38.79 6.3L38.79 5.45ZM38.79 18.95L38.79 11.9C38.79 11.51 38.47 11.23 38.09 11.23C37.71 11.23 37.43 11.51 37.43 11.9L37.43 18.95C37.43 19.34 37.71 19.62 38.09 19.62C38.47 19.62 38.79 19.34 38.79 18.95Z" fill="#FF8A00" fill-opacity="1.000000" fill-rule="nonzero"/>
</svg>
