<svg width="120.000000" height="17.000000" viewBox="0 0 120 17" fill="none" xmlns="http://www.w3.org/2000/svg" xmlns:xlink="http://www.w3.org/1999/xlink">
	<path id="Vector 1" d="M10.21 2.42L2.27 2.42C1.58 2.42 1.01 2.95 0.95 3.64L0.27 12.53C0.18 13.77 1.67 14.45 2.53 13.57L11.15 4.68C11.97 3.84 11.38 2.42 10.21 2.42Z" fill="#2C2826"/>
	<path id="Vector" d="M114.84 2.99L119.67 2.99L119.67 13.75L114.84 13.75L114.84 13.26C114.84 13.19 114.77 13.19 114.75 13.19C114.73 13.19 114.71 13.19 114.69 13.21C114.11 13.81 113.45 14.1 112.69 14.1C110.53 14.1 108.94 11.67 108.94 8.47C108.94 5.36 110.73 2.83 112.94 2.83L112.96 2.83C113.62 2.83 114.2 3.06 114.69 3.53C114.71 3.55 114.73 3.55 114.75 3.55C114.77 3.55 114.84 3.53 114.84 3.45L114.84 2.99ZM114.84 10.39L114.84 6.52C114.84 6.31 114.67 6.15 114.47 6.15C114.26 6.15 114.11 6.31 114.11 6.52L114.11 10.39C114.11 10.6 114.26 10.76 114.47 10.76C114.67 10.76 114.84 10.6 114.84 10.39Z" fill="#2C2826"/>
	<path id="Vector" d="M105.6 9.46L102.98 9.83C102.75 9.85 102.68 10.06 102.68 10.2C102.68 10.23 102.69 10.56 103.02 10.56C103.03 10.56 103.05 10.56 103.07 10.56L108.31 9.81L108.31 13.75L101.07 13.75C99.34 13.75 97.95 12.31 97.95 10.53C97.95 8.91 99.11 7.49 100.66 7.28L103.34 6.89C103.58 6.87 103.64 6.68 103.64 6.54C103.64 6.5 103.6 6.15 103.34 6.15C103.3 6.15 103.28 6.17 103.24 6.17L97.95 6.93L97.95 2.99L105.18 2.99C106.92 2.99 108.31 4.44 108.31 6.23C108.31 7.84 107.14 9.2 105.6 9.46Z" fill="#2C2826"/>
	<path id="Vector" d="M94.28 9.46L91.66 9.83C91.43 9.85 91.36 10.06 91.36 10.2C91.36 10.23 91.38 10.56 91.7 10.56C91.72 10.56 91.73 10.56 91.75 10.56L96.99 9.81L96.99 13.75L89.76 13.75C88.02 13.75 86.63 12.31 86.63 10.53C86.63 8.91 87.8 7.49 89.34 7.28L92.02 6.89C92.26 6.87 92.32 6.68 92.32 6.54C92.32 6.5 92.28 6.15 92.02 6.15C91.98 6.15 91.96 6.17 91.92 6.17L86.63 6.93L86.63 2.99L93.86 2.99C95.6 2.99 96.99 4.44 96.99 6.23C96.99 7.84 95.82 9.2 94.28 9.46Z" fill="#2C2826"/>
	<path id="Vector" d="M85.63 2.89C85.54 3.57 85.18 4.13 84.67 4.5C84.16 4.87 83.66 4.99 83.26 4.99C83.13 4.99 83.02 4.97 82.88 4.95C82.22 4.81 81.68 4.46 81.32 3.94C80.94 3.41 80.85 2.89 80.85 2.5C80.85 2.37 80.87 2.23 80.89 2.09C80.98 1.41 81.34 0.85 81.85 0.46C82.36 0.09 82.86 0 83.24 0C83.37 0 83.51 0.01 83.66 0.03C84.32 0.13 84.86 0.5 85.22 1.02C85.58 1.55 85.67 2.07 85.67 2.46C85.67 2.6 85.65 2.73 85.63 2.89ZM85.67 13.75L80.85 13.75L80.85 5.73L85.67 5.73L85.67 13.75Z" fill="#2C2826"/>
	<path id="Vector" d="M76.54 2.83C78.71 2.83 80.29 5.26 80.29 8.47C80.29 11.56 78.5 14.1 76.28 14.1C75.62 14.1 75.05 13.87 74.54 13.38C74.52 13.36 74.5 13.36 74.48 13.36C74.47 13.36 74.39 13.38 74.39 13.46L74.39 16.98L69.57 16.98L69.57 2.99L74.39 2.99L74.39 3.65C74.39 3.73 74.47 3.73 74.48 3.73C74.5 3.73 74.52 3.73 74.54 3.71C75.11 3.12 75.77 2.83 76.54 2.83ZM75.13 10.39L75.13 6.52C75.13 6.31 74.96 6.15 74.75 6.15C74.54 6.15 74.39 6.31 74.39 6.52L74.39 10.39C74.39 10.6 74.54 10.76 74.75 10.76C74.96 10.76 75.13 10.6 75.13 10.39Z" fill="#2C2826"/>
	<path id="Vector" d="M58.9 2.83L58.92 2.83C61.94 2.83 64.39 5.36 64.39 8.47C64.39 11.56 61.9 14.1 58.9 14.1C55.89 14.1 53.44 11.56 53.44 8.47C53.44 5.36 55.89 2.83 58.9 2.83ZM59.28 10.39L59.28 6.52C59.28 6.31 59.13 6.15 58.92 6.15C58.71 6.15 58.56 6.31 58.56 6.52L58.56 10.39C58.56 10.6 58.71 10.76 58.92 10.76C59.13 10.76 59.28 10.6 59.28 10.39Z" fill="#2C2826"/>
	<path id="Vector" d="M48.05 2.99L52.88 2.99L52.88 11.92C52.88 15.69 50.99 16.98 47.96 16.98L46.75 16.98L46.75 14.45L47.96 14.45C48.02 14.45 48.05 14.43 48.05 14.37L48.05 13.26C48.05 13.19 47.98 13.19 47.96 13.19C47.94 13.19 47.92 13.19 47.9 13.21C47.32 13.81 46.66 14.1 45.91 14.1C43.74 14.1 42.16 11.67 42.16 8.47C42.16 5.36 43.95 2.83 46.15 2.83L46.17 2.83C46.83 2.83 47.41 3.06 47.9 3.53C47.92 3.55 47.94 3.55 47.96 3.55C47.98 3.55 48.05 3.53 48.05 3.45L48.05 2.99ZM48.05 10.39L48.05 6.52C48.05 6.31 47.88 6.15 47.68 6.15C47.47 6.15 47.32 6.31 47.32 6.52L47.32 10.39C47.32 10.6 47.47 10.76 47.68 10.76C47.88 10.76 48.05 10.6 48.05 10.39Z" fill="#2C2826"/>
	<path id="Vector" d="M31.81 2.83L31.83 2.83C34.85 2.83 37.29 5.36 37.29 8.47C37.29 11.56 34.81 14.1 31.81 14.1C28.8 14.1 26.35 11.56 26.35 8.47C26.35 5.36 28.8 2.83 31.81 2.83ZM32.19 10.39L32.19 6.52C32.19 6.31 32.04 6.15 31.83 6.15C31.62 6.15 31.47 6.31 31.47 6.52L31.47 10.39C31.47 10.6 31.62 10.76 31.83 10.76C32.04 10.76 32.19 10.6 32.19 10.39Z" fill="#2C2826"/>
	<path id="Vector" d="M20.96 2.99L25.79 2.99L25.79 11.92C25.79 15.69 23.9 16.98 20.87 16.98L19.66 16.98L19.66 14.45L20.87 14.45C20.93 14.45 20.96 14.43 20.96 14.37L20.96 13.26C20.96 13.19 20.89 13.19 20.87 13.19C20.85 13.19 20.83 13.19 20.81 13.21C20.23 13.81 19.57 14.1 18.82 14.1C16.65 14.1 15.07 11.67 15.07 8.47C15.07 5.36 16.86 2.83 19.06 2.83L19.08 2.83C19.74 2.83 20.32 3.06 20.81 3.53C20.83 3.55 20.85 3.55 20.87 3.55C20.89 3.55 20.96 3.53 20.96 3.45L20.96 2.99ZM20.96 10.39L20.96 6.52C20.96 6.31 20.79 6.15 20.59 6.15C20.38 6.15 20.23 6.31 20.23 6.52L20.23 10.39C20.23 10.6 20.38 10.76 20.59 10.76C20.79 10.76 20.96 10.6 20.96 10.39Z" fill="#2C2826"/>
</svg>
